<svg width="78" height="72" viewBox="0 0 78 72" fill="none" xmlns="http://www.w3.org/2000/svg">
<path d="M0.651378 19.8331C7.32025 19.9142 12.5149 17.365 14.2786 16.0803C15.044 10.3496 20.3685 -0.878391 35.5432 0.0547412C50.7178 0.987873 53.7794 12.4796 53.4133 18.1088C53.4133 26.578 48.7711 31.548 48.6712 31.6494C46.6746 33.8808 47.4433 39.2869 59.9025 38.3943C75.4765 37.2786 85.7594 30.1787 86.3084 29.773C86.7477 29.4484 87.2069 29.5395 87.4565 29.773C89.9723 32.1261 90.1188 42.8909 89.9524 48.0299C89.004 68.924 75.776 76.8353 69.5863 79.4724C66.2586 81.1967 56.1687 84.5032 42.4317 83.9352C28.6946 83.3672 19.6364 77.1396 16.8244 74.0968C2.08898 59.4912 10.6846 46.0014 16.8244 41.0821C18.6547 39.6791 22.0656 36.3658 21.0673 34.3372C20.069 32.3087 18.1888 30.2463 17.3735 29.4687C1.20046 28.5558 0.0523779 23.8395 0.0024612 22.0138C-0.0374722 20.5532 0.418434 19.9514 0.651378 19.8331Z" fill="white"/>
</svg>
